<svg id="Layer_1" data-name="Layer 1" xmlns="http://www.w3.org/2000/svg" viewBox="0 0 48 12.38"><path id="creo-logo" d="M33.7,5.16H24.94a.2.2,0,0,0-.21.18v2a.2.2,0,0,0,.18.21H33.7a.18.18,0,0,0,.2-.18v-2a.19.19,0,0,0-.17-.21Zm0,4.69H24.94a.19.19,0,0,0-.21.18v2a.2.2,0,0,0,.18.21H33.7a.19.19,0,0,0,.2-.19v-2A.21.21,0,0,0,33.7,9.85Zm0-9.42H24.94a.2.2,0,0,0-.21.18v2a.2.2,0,0,0,.18.21H33.7a.19.19,0,0,0,.2-.18v-2a.22.22,0,0,0-.2-.21ZM41.92.18a6.17,6.17,0,0,0-6.17,6.16h0a6.16,6.16,0,0,0,6.16,6.17h0a6.15,6.15,0,0,0,6.17-6.15v0A6.16,6.16,0,0,0,41.94.18h0Zm0,9.87a3.69,3.69,0,0,1-3.7-3.67v0a3.7,3.7,0,0,1,3.68-3.7h0a3.69,3.69,0,0,1,3.7,3.68v0A3.69,3.69,0,0,1,42,10.06h0ZM6.22,2.65A3.67,3.67,0,0,1,9,3.93a.21.21,0,0,0,.29,0h0l1.57-1.36s.08-.08.08-.12a.27.27,0,0,0,0-.16A6.15,6.15,0,0,0,.1,6.3v0a6.16,6.16,0,0,0,6.15,6.17h0a6.17,6.17,0,0,0,4.65-2.15s0-.08,0-.16,0-.08-.09-.13L9.31,8.7a.2.2,0,0,0-.28,0H9a3.71,3.71,0,0,1-6.5-2.4v0a3.67,3.67,0,0,1,3.7-3.62ZM20.29,8.29A4.11,4.11,0,0,0,18.73.43h-5.8a.21.21,0,0,0-.21.18V12a.21.21,0,0,0,.18.21H15a.18.18,0,0,0,.2-.18V8.66H17.5l2.3,3.5a.21.21,0,0,0,.16.08h2.67a.17.17,0,0,0,.17-.12.2.2,0,0,0,0-.21Zm-2-2H15.27V2.86h3.05a1.68,1.68,0,0,1,1.84,1.51,1.62,1.62,0,0,1,0,.22,1.68,1.68,0,0,1-1.66,1.69Z" transform="translate(-0.1 -0.15)" style="fill:#fff"/></svg>