<svg id="Layer_1" data-name="Layer 1" xmlns="http://www.w3.org/2000/svg" viewBox="0 0 19 19"><path id="Icon_awesome-instagram" data-name="Icon awesome-instagram" d="M9.69,4.82a4.87,4.87,0,1,0,4.87,4.87A4.87,4.87,0,0,0,9.69,4.82Zm0,8a3.17,3.17,0,1,1,3.16-3.17h0a3.17,3.17,0,0,1-3.16,3.17Zm6.2-8.24a1.14,1.14,0,1,1-1.14-1.13h0a1.13,1.13,0,0,1,1.14,1.13Zm3.22,1.15a5.58,5.58,0,0,0-1.53-4,5.63,5.63,0,0,0-4-1.53C12,.17,7.33.17,5.76.26a5.62,5.62,0,0,0-4,1.53,5.6,5.6,0,0,0-1.54,4C.16,7.34.16,12,.25,13.61a5.6,5.6,0,0,0,1.54,4,5.63,5.63,0,0,0,4,1.53c1.57.09,6.27.09,7.84,0a5.66,5.66,0,0,0,4-1.53,5.66,5.66,0,0,0,1.53-4c.09-1.57.09-6.27,0-7.84Zm-2,9.52a3.23,3.23,0,0,1-1.8,1.81c-1.25.5-4.22.38-5.6.38s-4.35.11-5.6-.38a3.22,3.22,0,0,1-1.81-1.81c-.5-1.25-.38-4.22-.38-5.6s-.11-4.35.38-5.6a3.2,3.2,0,0,1,1.81-1.8c1.25-.5,4.22-.38,5.6-.38s4.35-.11,5.6.38a3.22,3.22,0,0,1,1.8,1.8c.5,1.25.38,4.22.38,5.6S17.59,14,17.09,15.29Z" transform="translate(-0.18 -0.19)" style="fill:#fff"/></svg>