<svg id="Layer_1" data-name="Layer 1" xmlns="http://www.w3.org/2000/svg" viewBox="0 0 27 27"><g id="alert-circle"><g id="Ellipse_4" data-name="Ellipse 4"><path d="M13.73,27.05a13.5,13.5,0,1,1,13.5-13.5A13.51,13.51,0,0,1,13.73,27.05Zm0-24a10.5,10.5,0,1,0,10.5,10.5A10.51,10.51,0,0,0,13.73,3.05Z" transform="translate(-0.23 -0.05)" style="fill:#1300c1"/></g><g id="Line_1" data-name="Line 1"><path d="M13.73,15.05a1.5,1.5,0,0,1-1.5-1.5v-5a1.5,1.5,0,1,1,3,0v5A1.5,1.5,0,0,1,13.73,15.05Z" transform="translate(-0.23 -0.05)" style="fill:#1300c1"/></g><g id="Line_2" data-name="Line 2"><path d="M13.94,20.13a1.5,1.5,0,1,1,0-3h0a1.5,1.5,0,1,1,0,3Z" transform="translate(-0.23 -0.05)" style="fill:#1300c1"/></g></g></svg>