<svg id="Layer_1" data-name="Layer 1" xmlns="http://www.w3.org/2000/svg" viewBox="0 0 17.2 17.23"><g id="Icon_feather-phone" data-name="Icon feather-phone"><path d="M15.18,17.4H15a16.64,16.64,0,0,1-7.21-2.57,16.26,16.26,0,0,1-5-5A16.55,16.55,0,0,1,.18,2.59,2.2,2.2,0,0,1,.69,1,2.15,2.15,0,0,1,2.19.19H4.8A2.24,2.24,0,0,1,7,2.08a10.22,10.22,0,0,0,.53,2.13A2.21,2.21,0,0,1,7,6.54l-.69.69a12.27,12.27,0,0,0,4,4l.7-.69a2.21,2.21,0,0,1,2.33-.5,9.77,9.77,0,0,0,2.13.53,2.21,2.21,0,0,1,1.9,2.23v2.41a2.19,2.19,0,0,1-2.19,2.21ZM4.81,1.38H2.38a1,1,0,0,0-1,1.09A15.42,15.42,0,0,0,3.75,9.18,15.25,15.25,0,0,0,8.4,13.82a15.48,15.48,0,0,0,6.69,2.38h0a1,1,0,0,0,1.08-1V12.76a1,1,0,0,0-.87-1,11.6,11.6,0,0,1-2.39-.59,1,1,0,0,0-1.07.22l-1,1a.6.6,0,0,1-.72.1,13.6,13.6,0,0,1-5-5,.62.62,0,0,1,.1-.73l1-1a1,1,0,0,0,.23-1.06,10.87,10.87,0,0,1-.6-2.39A1,1,0,0,0,4.81,1.38Z" transform="translate(-0.18 -0.18)" style="fill:#fff"/></g></svg>