<?xml version="1.0" encoding="utf-8"?>
<!-- Generator: Adobe Illustrator 25.0.0, SVG Export Plug-In . SVG Version: 6.00 Build 0)  -->
<svg version="1.1" id="Layer_1" xmlns="http://www.w3.org/2000/svg" xmlns:xlink="http://www.w3.org/1999/xlink" x="0px" y="0px"
	 viewBox="0 0 34.6 12.9" style="enable-background:new 0 0 34.6 12.9;" xml:space="preserve">
<style type="text/css">
	.st0{enable-background:new    ;}
	.st1{fill:#FFFFFF;}
</style>
<g>
	<g class="st0">
		<path class="st1" d="M5.5,12.9L5,11.6H2.2l-0.5,1.3H0.1L3,5.4h1.4l2.8,7.5H5.5z M2.8,10.1h1.8L3.7,7.6L2.8,10.1z"/>
	</g>
	<g class="st0">
		<path class="st1" d="M17.6,12.9L17,11.2h-3.8l-0.6,1.7h-2.3l3.9-10.2h2l3.8,10.2H17.6z M13.8,9.1h2.4l-1.2-3.4L13.8,9.1z"/>
	</g>
	<g class="st0">
		<path class="st1" d="M31.6,12.9l-0.8-2.2H26l-0.8,2.2h-2.9l5-12.9h2.5l4.8,12.9H31.6z M26.9,8.1h3l-1.5-4.3L26.9,8.1z"/>
	</g>
</g>
</svg>
