<svg id="Layer_1" data-name="Layer 1" xmlns="http://www.w3.org/2000/svg" viewBox="0 0 17 19.57"><path id="Icon_simple-tiktok" data-name="Icon simple-tiktok" d="M9.09,1.08c1.06,0,2.12-.91,3.18-.91a5.11,5.11,0,0,0,1.43,3.4A5.77,5.77,0,0,0,17.16,5V8.31a8.82,8.82,0,0,1-3.43-.79,10.69,10.69,0,0,1-1.32-.75c0,2.38,0,4.76,0,7.13a6.37,6.37,0,0,1-1.1,3.21,6.09,6.09,0,0,1-4.82,2.62,6,6,0,0,1-3.33-.84,6.14,6.14,0,0,1-3-4.66c0-.4,0-.81,0-1.21A6.14,6.14,0,0,1,6.88,7.51l.41.06c0,1.2,0,2.41,0,3.62a2.8,2.8,0,0,0-3.56,1.72h0a3.47,3.47,0,0,0-.11,1.32,2.78,2.78,0,0,0,5.11,1A1.89,1.89,0,0,0,9,14.39c.08-1.46.05-2.91.06-4.37,0-3.29,0-5.67,0-8.95Z" transform="translate(-0.16 -0.17)" style="fill:#fff"/></svg>