<svg id="Layer_1" data-name="Layer 1" xmlns="http://www.w3.org/2000/svg" viewBox="0 0 19 15.43"><path id="Icon_awesome-twitter" data-name="Icon awesome-twitter" d="M17.23,4.1c0,.17,0,.34,0,.51A11,11,0,0,1,6.32,15.69H6.16a11,11,0,0,1-6-1.75c.32,0,.63.05.94.05A7.79,7.79,0,0,0,6,12.32a3.89,3.89,0,0,1-3.64-2.7,4.49,4.49,0,0,0,.73.06,4,4,0,0,0,1-.13A3.9,3.9,0,0,1,1,5.73V5.68a4,4,0,0,0,1.76.5A3.9,3.9,0,0,1,1.51,1,11.09,11.09,0,0,0,9.54,5a4.41,4.41,0,0,1-.1-.89,3.89,3.89,0,0,1,6.74-2.66A7.85,7.85,0,0,0,18.66.55a3.84,3.84,0,0,1-1.72,2.14,7.82,7.82,0,0,0,2.24-.6,8.46,8.46,0,0,1-1.95,2Z" transform="translate(-0.18 -0.25)" style="fill:#fff"/></svg>