<svg id="Layer_1" data-name="Layer 1" xmlns="http://www.w3.org/2000/svg" viewBox="0 0 19.02 15.48"><path id="Icon_awesome-twitter" data-name="Icon awesome-twitter" d="M17.05,3.85v.51A11,11,0,0,1,6.14,15.44H6a11,11,0,0,1-6-1.75c.32,0,.63.05.94.05a7.77,7.77,0,0,0,4.9-1.67,3.89,3.89,0,0,1-3.64-2.7,4.49,4.49,0,0,0,.73.06,3.76,3.76,0,0,0,1-.13A3.91,3.91,0,0,1,.82,5.48V5.43a4,4,0,0,0,1.76.5A3.9,3.9,0,0,1,1.33.75a11.09,11.09,0,0,0,8,4,4.41,4.41,0,0,1-.1-.89A3.89,3.89,0,0,1,16,1.2,7.86,7.86,0,0,0,18.48.3a3.84,3.84,0,0,1-1.72,2.14A7.9,7.9,0,0,0,19,1.84a8.23,8.23,0,0,1-1.95,2Z" transform="translate(0.02 0.04)" style="fill:#282538"/></svg>