<svg id="Layer_1" data-name="Layer 1" xmlns="http://www.w3.org/2000/svg" viewBox="0 0 153.72 55.23"><path d="M45.19,50.06l.12-.12a.42.42,0,0,0-.12-.24H45v.12C45.07,49.94,45.19,49.94,45.19,50.06Z" transform="translate(-1.27 -1.8)" style="fill:#8149ff"/><path d="M38,7c.12-.24,0-.48.24-.6a.72.72,0,0,0,.48-.12c.12,0,.12-.12,0-.24-.36,0-.84-.24-1.08.12V7l.12.12C37.87,7.11,38,7.11,38,7Z" transform="translate(-1.27 -1.8)" style="fill:#8149ff"/><path d="M7.87,37.94c-.12.12,0,.25.12.25a.12.12,0,0,0,.12-.13c.12,0,0-.12-.12-.23Z" transform="translate(-1.27 -1.8)" style="fill:#8149ff"/><path d="M53.35,51.62c0,.12.12,0,.12,0l.12-.12v-.23a.47.47,0,0,0-.36.11C53.11,51.5,53.11,51.62,53.35,51.62Z" transform="translate(-1.27 -1.8)" style="fill:#8149ff"/><path d="M36.79,5.19a.44.44,0,0,0-.12-.36c-.12-.12-.12-.12-.24.12v.12c.12,0,.12,0,.24.12Z" transform="translate(-1.27 -1.8)" style="fill:#8149ff"/><path d="M3.91,37H3.07L3,37.11a.44.44,0,0,0,.12.36h.84A.44.44,0,0,0,4,37.11.12.12,0,0,1,3.91,37Z" transform="translate(-1.27 -1.8)" style="fill:#8149ff"/><path d="M36.79,8.67c.36.24.48.24.84-.12V8.19a7.76,7.76,0,0,0-1.08-1c0-.12-.12,0-.12,0v1Z" transform="translate(-1.27 -1.8)" style="fill:#8149ff"/><path d="M36,5.31c-.24-.24-.48-.24-.84,0C35.47,5.67,35.71,5.67,36,5.31Z" transform="translate(-1.27 -1.8)" style="fill:#8149ff"/><path d="M37,5.55l.12-.12A.42.42,0,0,0,37,5.19h-.24v.12C36.79,5.43,36.91,5.43,37,5.55Z" transform="translate(-1.27 -1.8)" style="fill:#8149ff"/><path d="M72.79,34l-.36-.48.36-.36V31.83L72,31.11v-1.2c-.36-.48-.84-.84-1.2-1.32v-.72l-1.2-1.2v-.24a.44.44,0,0,0-.48-.48.44.44,0,0,1-.36-.12v-.6a1,1,0,0,0-.6-.36,3,3,0,0,1-.84-.48c0-.12-.24,0-.36,0s-.24-.24-.24-.36-.12-.12,0-.12a6.92,6.92,0,0,1-1-1.2c-.72,0-.72,0-.72-.36a.62.62,0,0,0-.24-.48h-.36l-.72-.72c-.24,0-.36,0-.48-.12l-.84-.72H62c-.36-.24-.6-.72-1-.84H59.59c-.36-.24-.48-.48-.72-.6v-.48a.44.44,0,0,1,.36-.12.44.44,0,0,0,.48-.48c0-.12,0-.24.24-.36h.36a5.54,5.54,0,0,1,.84-.84c.24,0,.48,0,.6-.24v-1.2c0-.12.12-.12.24-.12a.86.86,0,0,0,.72.36,1.23,1.23,0,0,0,.6-.72c-.12-.12-.36-.24-.24-.36s.24-.12.24-.12c.6-.24.36-.6.48-.72l1-1,.12.12c.12,0,.24.12.36.24.24-.12.36-.36.48-.48s0-.6.36-.72l.36.36a1.66,1.66,0,0,0,.48-.36h.72l.6-.6v-.6c.24-.6.72-.24.84-.6-.24-.24-.36-.48-.6-.6l-.36.36c-.24-.12-.24-.36-.24-.6l.36-.36V8.19c-.12-.36-.6,0-.72-.36.12-.36.48-.12.72-.36a.75.75,0,0,0,.36-.6c-.12,0-.12-.12-.24-.24a2.64,2.64,0,0,1-.12-1l-.36-.24V5.07L66.79,4c-.36.12,0,.6-.36.72h-.84l-.36-.36H64c-.24-.12-.36-.36-.48-.36h-1.2a7.24,7.24,0,0,0-1,1c-.12.24,0,.48-.24.6H59.47l-1.2,1.2c-.24,0-.48,0-.6.24v.12c0,.24-.12.48-.24.48h-.84A19.93,19.93,0,0,0,55,9.27h-.48L53,10.83h-.36c-.6.72-1.2,1.32-1.92,2v.24l-.84.84v.48l-.72.72a1.52,1.52,0,0,1-.48.84v.36l-.84.84v.36a7.76,7.76,0,0,0-1,1.08,1.66,1.66,0,0,1-.48-.36c-.24.12-.36.36-.72.36s-.36.36-.6.36a.75.75,0,0,0-.6.36c-.6.24-1.32,0-1.8.12l-.36.36L42,19.47a1.66,1.66,0,0,0-.48.36h-.84l-.72.72c-.24.12-.6.12-.84.48a1.66,1.66,0,0,0-.48-.36,5.54,5.54,0,0,1-.84.84h-1.2l-.36.36c-.12-.12-.24-.24-.36-.24s-.24.12-.36.24-.48.12-.6-.12a.26.26,0,0,1-.24-.24h-.48L33.67,21h-.6c0,.36-.12.48-.24.36s-.12-.12-.12-.36c-.12.12-.24,0-.36-.12-.36-.24-.6-.72-1.08-.72-.24-.36-.72-.36-1.08-.36H30c0-.12-.12-.24-.24-.36-.48.12-.12.6-.48.72l-.84-.72H28c-.24-.24-.36-.48-.6-.6V18c-.12-.12-.36-.24-.48-.48v-.12c-.36-.12-.48-.24-.36-.72a.12.12,0,0,0,.12-.12,5970985942994.38,5970985942994.38,0,0,0,.24.24v.6h.6c.12-.12.36-.24.24-.48,0,.12-.12.12-.12,0s-.12,0-.12-.12-.12,0-.12-.12.12-.12.24,0,.24.12.12.24h1.08c.12-.12.12-.24.24-.48a.91.91,0,0,1,.24-.48c0-.12-.12-.24-.24-.48.24-.36.72,0,.84-.12.36-.24.48-.48.72-.6-.24-.24-.36-.48-.6-.6-.72-.12-.84-.24-.48-.84h.48l.36.36h.48a1.66,1.66,0,0,1,.36.48c.6-.12.6-.12.6-.6l.36-.48-.36-.36c.24-.36.84-.12,1.08-.6h.72a3.18,3.18,0,0,0,.6-.72,4.5,4.5,0,0,0,.12-1.2c0-.24.24-.24.36-.24V9.63h-.12c-.12,0-.12,0-.24-.12V9.39c.12-.12.12-.12.24-.12a.44.44,0,0,1,.12.36h1.08L36,9.51c0-.12,0-.24-.24-.24s-.24,0-.36-.12a1.66,1.66,0,0,0-.48-.36.72.72,0,0,1-.48-.12,1.66,1.66,0,0,1,.36-.48l-.36-.36c.12-.24.36-.36.36-.48s0-.48.24-.6h.6V6.63c0-.12.12-.12.24-.24l.12.12a.26.26,0,0,1-.24.24c0,.12-.12.12-.12,0V7l-.36.36a2.62,2.62,0,0,0,.48.6c.36-.12.24-.36.36-.6s.12-.24.36-.12v-.6a2.11,2.11,0,0,1,.48-.6c-.6-.12-1.08,0-1.56-.12L35,6.39c-.24,0-.48.12-.6-.12s.24-.36.36-.48c-.12-.24-.24-.24-.48-.24H33l-.6.6v1.2l.36.48a.44.44,0,0,1-.36.12c-.24.12-.36,0-.48-.24V7.35l-.6-.6c-.12.12-.24.36-.48.48h-.72a5.22,5.22,0,0,1-.84.72c-.12.12-.48.12-.6.24l-3.12,3.12h-.36l-1.92,1.92c-.36.12-.72,0-.72.6,0,.24-.48.36-.48.84-.12.12-.12.24-.36.48l-.84.84v.36l-1.08,1.2a.12.12,0,0,0-.12.12.91.91,0,0,1-.12.48l-.72.72v.36a1.66,1.66,0,0,0-.36.48v1.44l-.84.48c0,.36,0,.48-.24.72H17a1.66,1.66,0,0,1-.48.36l-.36-.36c-.12.12-.36.36-.48.36s-.36,0-.48.24,0,.36-.24.6h-.72c-.24,0-.36.24-.36.48s0,.24-.12.24l-.48-.36-.36.48h-.84c-.12,0-.24.12-.24.36s0,.36-.24.36-.48.24-.72.36-.48,0-.6.36v.36c-.24.12-.48.12-.72.36a1.29,1.29,0,0,1-.72.24L8.59,27c0,.24,0,.48-.24.6H8l-.84.84c-.6,0-.6,0-.6.36s-.12.36-.24.36-.48.12-.6.24v.48c-.12.36-.6,0-.72.36.12.12.36.24.24.48s-.36.12-.48.12-.36.24-.48.48H3.43L3,31.83c0,.24-.12.36-.12.48a1.66,1.66,0,0,0-.36.48v.36c-.12.36-.72,0-.84.48V34a1.66,1.66,0,0,1,.48.36.91.91,0,0,0-.12.48l-.72.72c.12.24.36.36.48.6s.36.36.6.48H4a.44.44,0,0,1,.36.12,1.2,1.2,0,0,1,.48.6c.12,0,.12.24.12.24a2.86,2.86,0,0,0,.48.6H6.79a.12.12,0,0,0,.12-.13c-.12-.23-.36-.35-.48-.59s-.6,0-.72-.24c.12-.12.36-.24.48-.48a.9.9,0,0,1,.6-.12,5.12,5.12,0,0,1,.84-.84l.36.36c.24,0,.48.12.6-.13v-.83l.6-.6c.24.12.36.6.84.36l.36-.36c.24.24.24.24.24.72a.48.48,0,0,1-.24.48L10,35.43H9.55c-.12.24-.36.36-.6.59v.37c0,.12-.12.12-.24.24a.44.44,0,0,0-.36.12c-.24,0-.12.12,0,.24h.84a1.66,1.66,0,0,1,.48-.36H10a1.66,1.66,0,0,0,.48.36c.12-.24.12-.48.24-.72l.48-.48c.24,0,.36,0,.48-.12s.24-.12.12-.24h-.12l-.24-.24c.12-.24.24-.24.24-.12s.24.12.12.36h1.08a5.54,5.54,0,0,1,.84-.84c.36.24.12.6.12,1l.48.47-.48.37v4.92c.24.12.36.36.48.47v.37l.24.36c.24.72,0,1.31.36,1.92h.36c.24.12.24.24.24.47s.36.37.36.61v.35a3.42,3.42,0,0,0,.84.61v1A11.17,11.17,0,0,1,18,48.62v.12l-.36.24c0,.6,0,.6.48.72a.44.44,0,0,1,.36.12c.12.24.36.24.6.37l.72.71h.48L22,52.7c.24.24.48.24.72.36l.72.72h1.2a1.51,1.51,0,0,1,.48.37h1.2l.48.47h.72A1.66,1.66,0,0,1,28,55h.84a.12.12,0,0,1,.12-.12c.12-.12.24-.24.36-.24s.12.24.12.36,0,.24.12.36h5.28a.42.42,0,0,0,.24-.12v-.6H35a5970985942995.18,5970985942995.18,0,0,1-.24-.24c.12-.23.24-.23.36-.11s.12.23,0,.35h.6a1.66,1.66,0,0,1,.48.36c.12-.12.36-.24.48-.48h1.2a1.65,1.65,0,0,1,.48-.35h.72a1.86,1.86,0,0,0,.48-.37c.36-.12.72.12,1-.24-.12-.12-.48-.24-.36-.48s.36-.12.48-.12L41,52.7c.48-.24.84,0,1.08-.35L41.71,52a1.66,1.66,0,0,1,.36-.48c.12-.12,0-.48.24-.48s.24.13.48.25a1.57,1.57,0,0,0,.72,0,.26.26,0,0,0,.24-.25c.12-.24-.12-.59.12-1h.48a1.66,1.66,0,0,1,.48-.36H45v-.84h-.12a5970985942994.93,5970985942994.93,0,0,1-.24-.24c.12-.11.12-.11.24-.11s.24.23.12.35a.77.77,0,0,0,.6-.35h.24c.36-.12.36-.12.36-.49v-.36H46c-.24,0-.36.24-.48.36-.24-.24-.24-.24-.84-.48,0,0-.12,0-.12-.11a.12.12,0,0,1,.12-.12,2.46,2.46,0,0,1,1.32,0,.12.12,0,0,1,.12.12c.12.11.12.11,0,.23h.24a1.65,1.65,0,0,1,.48-.35l1,1-.36.35a.42.42,0,0,0,.12.24h.48l.72.84h.48a1.66,1.66,0,0,0,.48.36H51a.89.89,0,0,0,.84.48l.36.36a4.92,4.92,0,0,1,1.32.12c.12,0,.12.13.12.25h1c.12.23.36.35.48.47h2l.12.12c.36.37.48.37.84.12s.48-.36.84,0c.12,0,.24.13.36.13h.6l.48-.37h1.2l.48-.47h1.32a8.89,8.89,0,0,1,.6-.84h.72a11.72,11.72,0,0,0,1.2-1l-.36-.35c.24-.25.36-.49.48-.6h.48a1.86,1.86,0,0,0,.48.35,1.42,1.42,0,0,1,.6-.59v-.49l.48-.47c.24,0,.36-.12.48-.12a1.51,1.51,0,0,1,.48-.37c.24-.12.6.12,1-.12v-1l.36-.35V45c.12-.12,0-.35.12-.59s.36,0,.6-.12l.6-.61v-.35a1.59,1.59,0,0,0,.36-.49V41.67c.48-.12.24-.73.6-1,.12-.12.48.12.6-.12s-.24-.36-.36-.48a2,2,0,0,0,.36-.48l-.36-.36v-.36c-.12-.12-.24-.24-.36-.24a.62.62,0,0,1-.48-.24v-.84c.12-.24.36-.12.6-.12a2.16,2.16,0,0,0,.72-1.08c0-.12.12-.24.24-.37v-.71a5.22,5.22,0,0,0-.72-.84Zm-6-22.8a.12.12,0,0,1-.12-.12c0-.12.12-.24.24-.12l.12.12C66.91,11.19,66.91,11.31,66.79,11.19Zm.48-1.56.12.12c0,.12,0,.24-.12.24-.36,0-.72.12-1,0-.48,0-.6-.12-.48-.6.12,0,.12-.12.24-.12l.36.36Zm-2-4.08c.24,0,.6-.12.84.12.12,0,.24.12.12.24.12,0,.12,0,.24.12a.12.12,0,0,1,.12.12c0,.12,0,.24-.12.12a.37.37,0,0,1-.24-.12V5.91a2.56,2.56,0,0,1-1,0L65,5.67A.42.42,0,0,1,65.23,5.55Zm-.36,5.28H65a.44.44,0,0,1,.36.12c.12.24-.12.36-.36.36h-.24c0-.12,0-.12-.12-.12S64.63,11,64.87,10.83Zm-3.72,4.08.12.12a.44.44,0,0,1-.12.36L61,15.27C60.91,15.15,61,15,61.15,14.91Zm-.48-.72c.12,0,.12,0,.24.12l-.12.12c-.12.12-.24,0-.24-.12A.12.12,0,0,1,60.67,14.19ZM33.79,8.07c.12,0,.12.12.12.24a.12.12,0,0,0-.12.12c-.24-.12-.24-.24-.24-.24S33.67,8,33.79,8.07Zm-.48,3.24c.12,0,.12.12.12.24s0,.12-.12.12-.12-.12-.24-.24S33.19,11.19,33.31,11.31ZM33.07,11c0,.12.12.24,0,.36H33l-.12-.12a.12.12,0,0,0-.12-.12C32.83,10.83,33,10.83,33.07,11Zm-1-.12.12.12a.44.44,0,0,1-.12.36L32,11.19C31.87,11.07,32,11,32.11,10.83Zm-1.32,1.8c.12-.12.24-.12.24.12l-.12.12a.37.37,0,0,1-.24-.12A.12.12,0,0,1,30.79,12.63Zm-1.56-4.2c.48.48.48.48.6.84,0-.12.12-.12.24,0a.42.42,0,0,1,.12.24l-.12.12c0-.12-.12-.12-.24-.24V9.27h-.6C29,8.91,29,8.91,29.23,8.43ZM28.39,11c.48.36.48.36.6.72h.6c.36.36.36.36.12.72a2,2,0,0,1-.72-.72h-.48C28.15,11.31,28.15,11.31,28.39,11Zm-.84-.48c.12,0,.12,0,.24.24a.12.12,0,0,0-.12.12c-.12,0-.24,0-.24-.12S27.55,10.59,27.55,10.47ZM2.71,36.15c-.24-.13-.24-.24-.24-.48A.88.88,0,0,1,2.71,35c.12.24.36.36.48.6S2.83,35.91,2.71,36.15Zm2.52.36c-.12.12-.24,0-.36-.12a.42.42,0,0,1,.24-.12.37.37,0,0,1,.24.12Zm6.48-3.12c-.24-.12-.24-.24-.24-.36s.12,0,.24-.12a.37.37,0,0,1,.12.24A.37.37,0,0,0,11.71,33.39Zm8.16,7.32-.12-.12c-.12-.12,0-.24.12-.24s0,0,.12.12A.37.37,0,0,1,19.87,40.71ZM30,20.31a.44.44,0,0,1,.36.12.42.42,0,0,1-.24.12c0,.12-.12,0-.24-.12ZM28,19.83l.36.48c.12.12.24.12.12.24s-.12.12-.24.12H28C27.67,20.43,27.67,20.19,28,19.83ZM26.83,11a.12.12,0,0,1,.12.12c0,.12-.12.24-.24.12l-.12-.12C26.71,11,26.71,10.83,26.83,11Zm-2.28,2.4c0-.36.12-.48.48-.48s.24.12.36.36v.24a5.22,5.22,0,0,0,.72.84c.12.12.12.12.12.24h.48c.24,0,.36.12.24.36h.24a.37.37,0,0,1,.12.24c0,.12,0,.12-.12.12a.37.37,0,0,1-.24-.12v-.24c-.12,0-.36.12-.48,0s-.36-.12-.24-.36h-.72a7.76,7.76,0,0,0-1-1.08Zm1.92,2.28-.12.12c-.12-.12-.12-.12-.12-.24l.12-.12C26.47,15.39,26.59,15.51,26.47,15.63Zm-2.16,3.12c0-.12.12,0,.24.12a.12.12,0,0,0-.12.12c-.12,0-.24,0-.24-.12S24.19,18.75,24.31,18.75Zm-.48-2.4a.12.12,0,0,1,.12-.12c.12,0,.12.12.12.24l-.12.12C23.83,16.47,23.71,16.35,23.83,16.35Zm-3,14.76v-.36c.12-.24.24-.24.24-.24a.37.37,0,0,0,.24.12v.48l.36.36c-.24.24-.36.48-.6.6-.24-.12-.36-.36-.6-.6Zm.48,1.68a.12.12,0,0,0-.12.12c-.12,0-.24,0-.36-.24a.12.12,0,0,0,.12-.12C21.07,32.55,21.19,32.55,21.31,32.79Zm1.08,12.72-.12.11a.41.41,0,0,1-.12-.35l.12-.12C22.39,45.27,22.51,45.39,22.39,45.51ZM40,36.87v.36a1.66,1.66,0,0,0-.36.48v1.56c-.12.12-.24.36-.48.48v1.19l-.24.25a4.89,4.89,0,0,0-.12,1.32,22.17,22.17,0,0,1-1.68,1.68v.36l-.48.6h-.48c-.12.12-.24.36-.48.47h-.36l-.6.61v.36c-.12.23-.36.35-.6.6h-.72c-.36.12-.48.59-1,.35a4.26,4.26,0,0,0-.6,1h-1c-.12-.24-.36-.36-.48-.49a.92.92,0,0,1-.48.49h-.72c-.6.47-.6.47-1.2,0a1.86,1.86,0,0,1-.48.35h-.36L26.35,48H26l-.72-.71c-.24,0-.36-.12-.6-.12s-.24-.37-.48-.49,0-.47-.24-.72-.24-.36-.24-.59l-1-1c-.12-.12-.48.12-.6-.24l.36-.49v-.35c-.24-.37-.6-.12-1-.24-.12,0-.12-.13-.24-.25l.36-.35-.36-.36c.12-.25.48-.37.36-.84,0,0,.24-.12.24-.25a.9.9,0,0,0,.6-.12,1,1,0,0,0-.48-.47V39.15a2.35,2.35,0,0,1-.6-.24c-.12,0-.12,0-.12-.12l.12-.12h.24a.32.32,0,0,0,.36-.36c.12-.12,0-.37-.12-.48h-.6c-.12.36-.24.48-.72.36l-.12-.13a.12.12,0,0,1,.12-.12.11.11,0,0,1,.12-.11h.6v-.36h-.6c-.24-.12-.24-.24-.24-.36s.12-.12.24-.12h.6c0-.12-.12-.36,0-.48a.32.32,0,0,1,.36-.36v-.6l-.36-.36v-.48l.36-.36L21.31,34c.12-.36.48-.48.72-.84a1.66,1.66,0,0,1-.36-.48v-.36l.6-.6c.24,0,.48.12.6-.24l-.72-.72a1.2,1.2,0,0,1,.48-.6c.12-.12.12,0,.24.12s.36.12.48,0v-.48l.6-.48h.84a7.76,7.76,0,0,1,1-1.08v-.36c.24-.24-.12-.12.12-.24h.6c.24,0,.6-.12.84,0l.24.36.48-.36h.36a1.66,1.66,0,0,1,.48-.36c0-.12.12,0,.12,0v.12c.12.12.24.12.24.24a.12.12,0,0,0,.12-.12c0-.12,0-.24-.12-.24s-.12-.12-.24-.12,0-.24.24-.24a.44.44,0,0,1,.36-.12,5.54,5.54,0,0,1,.84.84h.36c.36.12.24.48.36.72a2.62,2.62,0,0,0,.6.48h1.56l.36.36c.36.12.72,0,1.2.12a1.66,1.66,0,0,1,.48-.36c.24,0,.24.36.6.36s.48.12.48.36,0,.36.12.36h.84l1.08,1.08v.36c.36.48.84.84,1.2,1.32-.12.12-.36.24-.36.36s.24.24.36.24a.23.23,0,0,1,.36.12c0,.12-.12.12-.24.24s0,.12-.12.24v2.4A1.66,1.66,0,0,1,40,36.87Zm1.44,14h-.36l-.36-.36c-.24-.11-.24-.23-.24-.35a.42.42,0,0,1,.36-.13h.6C41.83,50.43,41.83,50.43,41.47,50.9Zm1.68-23.75c-.12,0-.24-.12-.12-.24l.12-.12a.37.37,0,0,1,.12.24C43.27,27.15,43.15,27.27,43.15,27.15Zm20.52,9.72c0,.12-.12.24-.24.36v.71l-.48.49v1.2l-.36.48v.36c-.72.72-1.44,1.31-2,2V43c-.36.25-.72.61-1.2,1-.12,0-.48,0-.48.49v.24c-.12,0-.12,0-.24.11l-.36-.35c-.24.12-.24.24-.24.47a.27.27,0,0,1-.24.25c-.36,0-.6.36-.84.47h-.72a1.66,1.66,0,0,1-.48.36H55a2.77,2.77,0,0,1-.84-.83h-.48a3.14,3.14,0,0,1-.48-.6c-.12-.49-.12-.49-.72-.61l-.6-.59c0-.24-.24,0,0-.24h-.12c-.12,0-.12,0-.12-.13s-.12,0-.12-.12.12-.11.24,0,.24.12.12.25c.48.12.36-.25.48-.48-.24-.36-.6-.61-.84-1v-1.2l.36-.36-.72-.72c-.12-.37,0-.72-.48-.84a7.86,7.86,0,0,1,0-1.68,1.66,1.66,0,0,0,.36-.48v-.84l-.36-.36v-1c0-.24,0-.36.12-.36s.24,0,.24.12.12.12.24.12h.12c.12-.24,0-.48.12-.6l.36-.36a5.22,5.22,0,0,0-.72-.84c-.12-.36-.12-.36.12-.6l.36.36c.36-.12.48-.36.72-.6a.44.44,0,0,1-.12-.36,5.22,5.22,0,0,1-.72-.84c.12-.36.36-.12.6-.24s.36-.36.6-.6V29l.84-.72v-.84L54,27c.12-.36-.12-.72.12-1.32a7.11,7.11,0,0,1,1-1h.72a1.66,1.66,0,0,1,.48-.36H57l.48.36h.72a1.66,1.66,0,0,1,.48.36l.48-.36c.12.24.36.36.6.6a1.66,1.66,0,0,0-.36.48c.12.24.48.12.6.24s.24.36.48.36h.24a3.65,3.65,0,0,1,1,1,.44.44,0,0,1,.12.36,11.2,11.2,0,0,1,1.56,1.8.44.44,0,0,1,.12.36c.12.12.12.24.24.24A62.75,62.75,0,0,1,63.67,36.87Zm1.68,10.56c0,.11-.12.23-.24.11L65,47.43a.37.37,0,0,1,.24-.12C65.35,47.31,65.47,47.43,65.35,47.43ZM71,42.63c-.12.12-.12,0-.24-.12l.12-.12c.12,0,.24,0,.24.12A.12.12,0,0,1,71,42.63Zm.36-1.08c-.12-.12-.24-.24-.12-.36l.12-.13a.47.47,0,0,1,.12.37Zm0-10.68s-.12,0-.24-.24a.12.12,0,0,0,.12-.12.44.44,0,0,1,.36.12C71.59,30.75,71.47,30.75,71.35,30.87Zm.48,2.76c-.12.12-.24,0-.24-.12a.12.12,0,0,1,.12-.12.37.37,0,0,1,.24.12Zm.72,3-.12-.12a.44.44,0,0,1,.12-.36.42.42,0,0,1,.12.24C72.79,36.39,72.67,36.51,72.55,36.63Z" transform="translate(-1.27 -1.8)" style="fill:#8149ff"/><path d="M72.43,38.06a.12.12,0,0,0,.12.13c.12,0,.24-.13.12-.25l-.12-.11A.34.34,0,0,0,72.43,38.06Z" transform="translate(-1.27 -1.8)" style="fill:#8149ff"/><path d="M35,10.47l.12-.12a.42.42,0,0,0-.12-.24.37.37,0,0,0-.24-.12v.24C34.75,10.35,34.87,10.35,35,10.47Z" transform="translate(-1.27 -1.8)" style="fill:#8149ff"/><path d="M21.91,36.51c0,.12.12,0,.12-.12a.42.42,0,0,1-.12-.24h-.24v.24C21.67,36.51,21.79,36.51,21.91,36.51Z" transform="translate(-1.27 -1.8)" style="fill:#8149ff"/><path d="M21.55,37.35c.12-.24,0-.24-.24-.36v.24s.12,0,0,.12v.12C21.43,37.47,21.55,37.47,21.55,37.35Z" transform="translate(-1.27 -1.8)" style="fill:#8149ff"/><path d="M33,20.79c-.12-.12-.24,0-.24.24h.36C33.19,20.91,33.07,20.79,33,20.79Z" transform="translate(-1.27 -1.8)" style="fill:#8149ff"/><path d="M98.83,17.19c.12-.12,0-.12-.24-.12v.36C98.71,17.43,98.83,17.43,98.83,17.19Z" transform="translate(-1.27 -1.8)" style="fill:#8149ff"/><path d="M92.59,26.31c-.12.12,0,.24.12.24a.12.12,0,0,0,.12-.12c0-.12,0-.12-.12-.24Z" transform="translate(-1.27 -1.8)" style="fill:#8149ff"/><path d="M152.59,28.83l-.24-.24a1.21,1.21,0,0,1,.36-.12c.12,0,.12.12.24.12s.12,0,.12.24c0,0,.12-.12.12,0a1.66,1.66,0,0,1,.48.36L155,27.87c-.24-.24-.48-.36-.48-.6h-.6c-.12.24-.48.6-.6.84-.36,0-.48,0-.6-.24v-.36l-.36-.48V26l.36-.36c0-.24,0-.36-.12-.48H151c-.12-.12-.24-.36-.48-.48h-1.08l-.36-.36h-.48l-.36.36c-.12-.12-.24-.24-.36-.24,0-.24-.24-.12-.36-.12s-.24.36-.36.36c-.48,0-.72.36-1,.6v.36A8.52,8.52,0,0,1,144.67,27v.48c-.12.36-.6.12-1,.24l-.72.72h-.72a1.66,1.66,0,0,0-.48.36h-.36c-.12.12-.24.48-.6.36s-.36.36-.48.36c-.24-.24-.48-.36-.6-.48-.12-.48.24-.6.36-1v-.6a1.66,1.66,0,0,0,.36-.48c-.24-.12-.48-.24-.36-.6a1.66,1.66,0,0,0,.36-.48v-.72l-.36-.36v-.36a1.66,1.66,0,0,0-.36-.48l.36-.36c-.12,0-.24-.12-.36-.24s.24-.24.36-.48a1.66,1.66,0,0,1-.36-.48v-.6l.36-.48V20a.12.12,0,0,0-.12-.12c-.12-.12-.24,0-.24.12v.24c0,.12,0,.12-.12.12h-.24a.86.86,0,0,0-.36-.72.54.54,0,0,1,0-.6l.36-.24-.84-.72V16.71a1.45,1.45,0,0,1-.6-.6c-.12-.24,0-.48-.12-.48a.86.86,0,0,1-.36-.72l-.84-.72v-.72c-.24-.24-.36-.6-.72-.84v-.72c0-.12-.12-.12-.36-.24s-.36,0-.36-.36v-.6l-.36-.24V10l-.72-.72c0-.24-.12-.36-.12-.48-.24-.12-.48-.48-.84-.72V7.71c-.72-.84-1.56-1.68-2.28-2.4-.12-.12-.24,0-.6-.12l-.48-.72h-.48a2.52,2.52,0,0,0-1-.72h-.24l-1.2-1.2h-1.44L125,2.19h-3l-.36-.36c0,.12,0,.12-.12.12a.74.74,0,0,1-.84.12c-.36-.36-.48-.36-.72,0l-.12.12a7.84,7.84,0,0,0-1.68,0l-.24.36h-.84l-.36.36H116a.94.94,0,0,0-.48.48c-.48,0-.48,0-.48.12a.72.72,0,0,1-.12.48c-.24,0-.24.36-.6.36a.73.73,0,0,0-.72-.36,10.45,10.45,0,0,1-1.08,1.32H112l-.24.24H111l-.72.72c-.12.12-.24.12-.48.24l-.84.72a.44.44,0,0,1-.12.36c0,.12-.12.24-.12.36a6.86,6.86,0,0,1-1,.84v.36c-.24.36-.6.6-.84,1v.6a1.29,1.29,0,0,0-.24.72V12a2.62,2.62,0,0,0-.6.36.9.9,0,0,1-.6-.12c-.12-.12-.36-.12-.6-.24L103.75,11h-.48a3.18,3.18,0,0,0-.6-.72h-.84c-.48-.6-.6-.6-1.08-.12-.36-.12-.48-.48-.84-.72h-.36L99.19,9h-.48l-.24.36h-.84c-.12-.12-.36-.36-.48-.36s-.36,0-.36.36h.12a.37.37,0,0,0,.12.24l-.12.12-.12-.12a.37.37,0,0,1-.12-.24h-.12c-.12.12-.36.24-.48.48H95a1.66,1.66,0,0,1-.48.36h-.72c-.12.12-.24.24-.36.24-.36.12-.72,0-1,.24v.36a.48.48,0,0,1-.48.24,9.74,9.74,0,0,1-1.2,1.08h-.36c-.84,1-1.68,1.68-2.52,2.52v.24c0,.24-.12.36-.48.36-.12-.12-.24,0-.36.12V16a.62.62,0,0,1-.24.48v.36c-.12.24-.36.24-.36.36s0,.48-.24.6-.12.48-.24.6c-.36.24-.48.48-.36.84,0,.12-.12.24-.12.36s-.24.24-.24.48-.24.36-.36.48v.84c-.12.12-.24.36-.48.48v1.44q-.18.36-.36.36v1.92a.12.12,0,0,0-.12.12.74.74,0,0,0-.12.84c.36.36.36.36,0,.72v1c0,.12.12.36.24.36-.12.12-.24.24-.24.36v.48c0,.12.12.24.24.36v1.08c.24.24.48.36.48.72s.36.24.36.72c.12.24-.12.6.12,1.08a16.16,16.16,0,0,1,1.44,1.44v.24c.48.12.24.72.6,1h.24c.24.25.12.49.24.73a8.46,8.46,0,0,0,1.08.84c0-.12.12-.12.12-.24s.36-.24.6-.12a.12.12,0,0,0,.12.12c.12.24.24.24.36.24.48,0,.36.35.48.6a.94.94,0,0,0,.48.48h.36l.24.35c.12.49.12.49.48.49h.36a1.11,1.11,0,0,0,1,.47c0,.13.12.13.24.13.48.24,1.08,0,1.68.12l.24.36.36-.36h.36a2.89,2.89,0,0,1,.84.83c.12,0,.36-.12.48.13a17.6,17.6,0,0,0-2.16,2.16c-.36,0-.36,0-.48.47a1.59,1.59,0,0,0-.36.49c-.24.24-.72.12-.84.47-.12.12-.24,0-.36.12s-.24.12-.36.37,0,.24-.36.24-.36.11-.36.35S92,46,92,46.11a3.25,3.25,0,0,1-.72,1c-.36,0-.48,0-.6.13l-.36.47v.49a6.51,6.51,0,0,0-1.08.83h-.36a.47.47,0,0,0-.12.37c0,.23,0,.35-.24.47h-.84c-.12.37-.6.12-.84.49v.84l-.36.35.36.36c0,.25,0,.49-.24.6a2.67,2.67,0,0,1-.48-.6l-.6,1c-.48.12-1-.24-1.44.24.12.13.24.13.48.36a1.29,1.29,0,0,0-.72.24,2.49,2.49,0,0,0-.48.61,3.29,3.29,0,0,0,.12,1.07l.36.36v.49c0,.35,0,.35.24.35h.6l.48.48h1.08c.12-.24.36-.36.48-.48h.6l.36-.24a.12.12,0,0,1,.12.12c.12,0,.24.12.36.12s.6,0,.6-.12V55.34a.34.34,0,0,1,.12-.23h.72a1.49,1.49,0,0,1,.48.35h1.56c.24-.24.36-.6.72-.72a2.06,2.06,0,0,0,1-.12V53.54h-.6a.26.26,0,0,1-.24-.24.47.47,0,0,1,.36-.11h.36a.41.41,0,0,1,.12.35h.24l.24-.35.48.35h.36c.24-.24.48-.35.6-.48s-.12-.48.12-.6,1,.24,1.32-.23a.12.12,0,0,0-.12-.12c-.12-.13-.24-.25-.12-.37s.12-.12.36-.12h.48c.12,0,.24-.12.36-.24a1.28,1.28,0,0,0,.36-.11l1-1v-.37c.24-.24.84,0,1-.48h.36a14.23,14.23,0,0,1,1.44-1.31c.12-.13.24-.13.24-.25h.36a.44.44,0,0,0,.36-.12c.24-.12.12-.35.12-.47a5.6,5.6,0,0,0,.84-1h.84c.36-.24.12-.84.6-1a.94.94,0,0,0,.12-.49h.36l.48-.12c.12,0,.12-.11.24-.11v-.36a1.41,1.41,0,0,1,.6-.61.39.39,0,0,0,.24-.11.26.26,0,0,0,.24-.24.89.89,0,0,1,.24-.84h1.08l.36-.36H111a1,1,0,0,0,.48-.48c.36.23.48-.12.72-.24h1.44c.12.12.24.24.36.24a9.68,9.68,0,0,0,1.68-1.44H116a3.47,3.47,0,0,0,.72-.6v-.12c.48-.12.48-.12.48-.49l.24-.35h2.4c.12.12.12.24.24.48h3.48l.36.36.48-.36h1.08l.6.6v.36c-.12,0-.36.24-.48.36.12.47-.12.59-.48.59a.27.27,0,0,0-.24.25v.36L124,43h-.6l-.36.49v.35c-.12.12-.24.24-.36.24-.36,0-.48.13-.48.49a.25.25,0,0,1-.24.23c-.24.12-.48,0-.84.24a1.84,1.84,0,0,1-.24.6h-.48c-.24.36-.24.36.24,1-.24.11-.24.11-1.32.11a.86.86,0,0,1-.72.36.65.65,0,0,0-.6.25v.35c-.12.24-.36.36-.36.49-.12.47,0,.47-.6.47l-.36.36H116a1,1,0,0,0-.48.48h-1.08c-.12,0-.24.12-.24.36s-.12.24-.48.24a.27.27,0,0,0-.24.25v.35c-.36.36-.36.36-1-.12h-1.08a1.66,1.66,0,0,1-.48.36h-.72l-.36-.36h-.36a1.66,1.66,0,0,0-.48.36h-.72c0,.12-.12.12-.12.25s.24.23.24.35.12.36,0,.48-.24-.24-.48-.36c-.12.24,0,0-.12.12a.93.93,0,0,0-.12.61c.12.35-.12.84.24,1.19h.36l.72.84c.48-.11.6.24,1,.36a3,3,0,0,1,1,.12.6.6,0,0,1,.48.25h.6a1.86,1.86,0,0,0,.48.35H114l.48-.35h.6a1.86,1.86,0,0,0,.48-.37h.36a1.51,1.51,0,0,1,.48.37h1.08a.84.84,0,0,1,.72-.37h.36a1.66,1.66,0,0,0,.48-.36c.6-.11,1.08.12,1.56-.11l.48-.37c.12-.24.12-.48.24-.71h1.08a1.86,1.86,0,0,0,.48-.37h.72c.12-.12.12-.12.12-.36a.44.44,0,0,1,.48-.48c.36,0,.36,0,.36-.36a.37.37,0,0,1,.12-.24c.24,0,.24.24.36.24a10.45,10.45,0,0,0,1.32-1.08h.24a5.16,5.16,0,0,1,1.2-1.08c.24-.11.48,0,.48-.23s.24-.25.36-.25c.6.13.48-.36.48-.47l.6-.61H130a.88.88,0,0,0,.12-.59,11.92,11.92,0,0,0,1.2-1.08,1,1,0,0,0,.12-.49c0-.23.24-.35.48-.59h.24c.48-.13.6-.48,1-.6,0,0,.12.35.36.23s.12-.35.12-.47a1.59,1.59,0,0,1,.36-.49c0-.23.12-.47-.24-.47h-.6c-.12,0-.12-.12-.24-.12a11.62,11.62,0,0,1,.84-1.08c.36,0,.48,0,.72-.25a.42.42,0,0,1,.24-.12.77.77,0,0,1,.48-.11c0-.36-.24-.73.12-1.08H136a1.3,1.3,0,0,0,.6-.48c-.12-.13-.24-.25-.24-.36v-1c.12-.12.36,0,.48-.12a1.09,1.09,0,0,1,.84-.36l.6-.72h1.2c.24-.12.24-.24.36-.36h1.2c.12-.12.36-.36.36-.48H143c.12,0,.24-.12.36-.24a.48.48,0,0,0,.6-.36c.72-.13,1,0,1.32-.13.12-.11.36-.35.48-.35s.36,0,.48-.24v-.36c.12-.12.24,0,.48-.12s.36-.24.48-.36h.72c.24-.12.12-.48.24-.72a.66.66,0,0,1,.6-.36c.24-.12.72,0,.84-.24,0-.48,0-.48.48-.6l.36-.24v-.36c.12-.24.48-.12.72-.24s.24-.36.48-.36.36-.24.24-.36.12-.24.24-.36h.48a6,6,0,0,1,.84-1l-.36-.36v-.6ZM91.15,26.19c-.24-.24-.12-.48-.24-.72s.12-.24.24-.36c.24.12.24.24.24.6A.48.48,0,0,1,91.15,26.19Zm-6,28.92C85,55.11,85,55,85,55s-.12-.12.12-.24a.12.12,0,0,0,.12.12A.41.41,0,0,1,85.15,55.11Zm1.08,1.19a.46.46,0,0,1,0-.84A.58.58,0,0,1,86.23,56.3Zm1.2-3.24c0,.13,0,.13-.12.13h-.24c-.12,0-.24,0-.24-.25a.37.37,0,0,1,.24-.12h.24C87.43,52.94,87.55,53.06,87.43,53.06Zm4.2,1.32h-.24c-.24,0-.48-.11-.36-.23s.24-.25.36-.25.12,0,.12,0a.35.35,0,0,1,.24.37A.11.11,0,0,0,91.63,54.38Zm2-1.56V52.7c0-.24.12-.24.24-.24s0,.12.12.24A.44.44,0,0,1,93.67,52.82Zm3.24-2.28-.12-.11a.47.47,0,0,1,.12-.37v.25C97,50.31,96.91,50.43,96.91,50.54ZM95.35,16.71l.12.12c0,.12,0,.12-.12.24a.12.12,0,0,0-.12-.12C95.23,16.83,95.23,16.71,95.35,16.71Zm8.52,11.64c-.12.12-.24.24-.36.24a6.78,6.78,0,0,1,0,1.56l-.24.36c-.12.48,0,1.08-.12,1.44l-.36.48v.72q-.18.36-.36.36v.84a.94.94,0,0,0-.48.48v.24l-.48.6h-.84l-.36-.36c0,.12-.24.24-.36.36H98l-.24-.36c-.6-.24-1.08,0-1.68-.12a.44.44,0,0,0-.36-.12A1.52,1.52,0,0,0,95,35l-.72-.72c-.6-.12-.6-.12-.6-.72a3.18,3.18,0,0,1-.72-.6.91.91,0,0,0-.48-.84l.36-.36-.36-.36v-.48a1.66,1.66,0,0,0-.48-.36v-.72c-.36-.48-.36-.48,0-1,.12,0,.36,0,.36-.24.12,0-.24-.12-.24-.24s0-.6,0-.84a1.66,1.66,0,0,1-.36-.48c.12-.12.24-.12.24-.24s-.12-.24-.12-.36l.24-.6a.72.72,0,0,1,.12-.48h.84c.24-.24.24-.24.24-1.2a1.66,1.66,0,0,1,.36-.48V22.59l-.36-.48a.44.44,0,0,1,.36-.12c.12,0,.24-.12.36-.12a6.66,6.66,0,0,1-.72-1,.72.72,0,0,1,.48-.12,1.66,1.66,0,0,1,.36.48H95c.24-.12.24-.24.12-.36s-.48-.12-.72-.24q.18-.36.36-.36c.12,0,0-.12,0-.24a2.56,2.56,0,0,1-1,0,.42.42,0,0,1-.12-.24.12.12,0,0,1,.12-.12c.24,0,.6-.12.84.12.24,0,.24.12.12.24h.48c.12.12.12,0,.24-.12s0-.12-.12-.24a.12.12,0,0,0-.12-.12c0-.36.24-.36.24-.6s.12-.36.48-.36h.48a.12.12,0,0,0,.12-.12c.24-.12.36-.36.6-.36s.36-.36.6-.36a1.52,1.52,0,0,0,.72-.12c.12,0,.12-.12.12-.24-.24-.12-.36-.24-.24-.36h.24c0-.12,0-.36.12-.36a4.5,4.5,0,0,0,1.2-.12c.12,0,.24-.12.36-.24l.36.36.48-.48h.36c.24.12.12.36.24.6s.24.24.24.36v.6c0,.24,0,.24.48.36l.36.24v.24a1.66,1.66,0,0,0,.36.48v1.2a.38.38,0,0,1,.36.36v.72l.36.36A54.08,54.08,0,0,1,103.87,28.35ZM110,53.19a.42.42,0,0,1-.36-.13l.12-.12c.12-.12.24,0,.36.12Zm9-44.88.12.12c0,.12,0,.24-.12.24a.12.12,0,0,1-.12-.12C118.75,8.43,118.87,8.43,119,8.31Zm-5.76,5.4.12-.12c.12.12.12.12.12.24l-.12.12C113.23,13.83,113.11,13.71,113.23,13.71Zm-1-1.08v-.72c.48-.24.48-.24.84,0v.72C112.63,12.87,112.63,12.87,112.27,12.63Zm19.08,13.8-.24.24c-.24.24-.12.72-.12,1.08v.84l-.36.36a4,4,0,0,0,0,1.2c-.12,0-.24.12-.48.36v.72c-.12.24-.24.36-.24.48v.36a7.76,7.76,0,0,0-1.08,1l-.36-.36-.36.36h-1.56a.54.54,0,0,1-.36.36H125c-.12-.12-.12-.12-.12-.24s-.24-.12-.36-.12h-3.6l-.36.36c-.48.12-1,0-1.44.12a5.54,5.54,0,0,1-.84-.84h-1.2a6.85,6.85,0,0,0-1.32-1.32c-.36-.24-.72-.12-.72-.48v-.36l-.72-.6a2.64,2.64,0,0,1-.12-1l-.36-.36v-1.2a1.08,1.08,0,0,0-.6-.12c-.12-.24-.36-.36-.48-.48a1.66,1.66,0,0,0,.36-.48V26l.36-.36c-.24-.24-.48-.36-.24-.84l.24-.24V23.07c0-.24-.24-.36-.36-.48a.58.58,0,0,0-.36-.72v-1.2q.18-.36.36-.36l-.36-.36v-.84c.12-.24.12-.24.6.12.12,0,.12-.24.12-.48s.12-.12.24-.36-.36-.36-.24-.84l-.36-.36v-.72a1.66,1.66,0,0,0,.36-.48V14.91a2.62,2.62,0,0,0,.48-.6c.24.12.36.36.48.48h.36c.24-.24.36-.48.48-.6.12-.48.12-.48-.36-.6h-.12a.12.12,0,0,1-.12-.12c.12-.24.36-.36.48-.6h.48c.36,0,.48-.12.48-.24s-.24-.24-.36-.24h-.24c-.12,0-.12-.12,0-.24h.84c.12-.24.12-.48.24-.72A1.66,1.66,0,0,0,117,11h1.92c.36-.24.24-.48.24-.48.24-.36.72-.24,1-.24l.36-.36c.36-.12.84,0,1.2-.12,0-.12.24-.24.36-.36h.36l.48-.36h.36c.12-.24.24-.24.36-.36H125a1.66,1.66,0,0,1,.48.36h1.08l.6.6V10c.12.36.72.12.84.48v.24a1.66,1.66,0,0,0-.36.48,7.24,7.24,0,0,0,1,1,.72.72,0,0,1,.12.48c-.12.12-.36.24-.48.48.24.24.48.6.84.72v.36c.36.6.36.6.36,1.08a5.22,5.22,0,0,1,.72.84v.72a1.66,1.66,0,0,0,.48.36v.36L131,18v1.08c.12.12.24.24.36.24A63.19,63.19,0,0,1,131.35,26.43Zm1.32,15.72a.41.41,0,0,1-.12-.25c.12-.12.12-.23.12-.12.24,0,.24.12.24.24S132.79,42.15,132.67,42.15Zm19.68-12.6c0,.36-.12.48-.24.36s-.24-.12-.24-.24a.17.17,0,0,0,0-.24c.12-.12.24-.24.36-.12a.12.12,0,0,1,.12.12Z" transform="translate(-1.27 -1.8)" style="fill:#8149ff"/></svg>